<?xml version="1.0" encoding="UTF-8" standalone="no"?>
<!-- Created with Inkscape (http://www.inkscape.org/) -->

<svg
   version="1.1"
   id="svg1775"
   width="593"
   height="85"
   viewBox="0 0 593 85"
   sodipodi:docname="mcmaster.svg"
   inkscape:version="1.2.2 (732a01da63, 2022-12-09)"
   xmlns:inkscape="http://www.inkscape.org/namespaces/inkscape"
   xmlns:sodipodi="http://sodipodi.sourceforge.net/DTD/sodipodi-0.dtd"
   xmlns="http://www.w3.org/2000/svg"
   xmlns:svg="http://www.w3.org/2000/svg">
  <defs
     id="defs1779" />
  <sodipodi:namedview
     id="namedview1777"
     pagecolor="#ffffff"
     bordercolor="#000000"
     borderopacity="0.25"
     inkscape:showpageshadow="2"
     inkscape:pageopacity="0.0"
     inkscape:pagecheckerboard="0"
     inkscape:deskcolor="#d1d1d1"
     showgrid="false"
     inkscape:zoom="3.9707685"
     inkscape:cx="327.26662"
     inkscape:cy="49.360722"
     inkscape:window-width="3840"
     inkscape:window-height="2066"
     inkscape:window-x="-11"
     inkscape:window-y="-11"
     inkscape:window-maximized="1"
     inkscape:current-layer="layer1" />
  <g
     inkscape:groupmode="layer"
     id="layer1"
     inkscape:label="SVG"
     style="display:inline">
    <path
       style="fill:#346734;fill-opacity:1;stroke:#346734;stroke-opacity:1"
       d="M 14.154203,4.7101202 7.3168986,80.4999 H 24.148827 L 26.035392,26.503323 33.148714,80.4999 H 45.614312 L 52.727634,26.503323 54.614199,80.4999 H 70.779514 L 64.8179,4.7101202 H 45.082688 L 38.804504,50.022229 33.810709,4.7101202 Z"
       id="path648"
       inkscape:label="M1" />
    <path
       style="display:inline;fill:#346734;fill-opacity:1;stroke:#346734;stroke-opacity:1"
       d="M 94.517444,27.304664 V 43.50227 c -4.073554,0.611802 -7.169152,3.693377 -7.236296,10.17504 -0.06421,6.198498 3.325053,10.133657 7.236296,10.741218 v 16.615603 c -3.618199,0.919383 -8.627314,0.49657 -12.23531,-1.832263 -2.784157,-1.797075 -10.196019,-9.786065 -10.142892,-24.715297 0.05468,-15.364465 5.649509,-21.121683 9.786736,-24.05304 3.263706,-2.312439 5.363853,-3.252956 12.591466,-3.128867 z"
       id="path3865"
       sodipodi:nodetypes="ccsccsssc"
       inkscape:label="tinyC" />
    <path
       style="fill:#346734;fill-opacity:1;stroke:#346734;stroke-opacity:1"
       d="M 104.01015,4.7101202 97.172846,80.4999 h 16.831924 l 1.88657,-53.996577 7.11332,53.996577 h 12.4656 l 7.11332,-53.996577 1.88657,53.996577 h 16.16531 L 154.67385,4.7101202 H 134.93864 L 128.66045,50.022229 123.66666,4.7101202 Z"
       id="path648-8"
       inkscape:label="M2" />
    <path
       id="path2786"
       style="fill:#346734;fill-opacity:1;stroke:#346734;stroke-opacity:1"
       d="M 178.6543,4.7109375 164.30273,80.5 h 16.58008 l 1.10157,-9.916016 h 11.56445 L 194.65039,80.5 h 16.06445 L 197.66797,4.7109375 Z m 9.11132,13.8320315 4.10547,36.943359 h -8.21093 z"
       inkscape:label="A1" />
    <path
       style="display:inline;fill:#346734;stroke:#346734;fill-opacity:1;stroke-opacity:1"
       d="m 242.29813,8.3107338 c -2.87849,-2.0077805 -5.87409,-4.0012858 -11.54935,-3.9664866 -10.06,0.061685 -17.63442,9.6034778 -17.69179,23.9248398 -0.0376,9.390225 3.05114,14.758135 8.03282,19.633678 4.02688,3.941079 7.75623,7.850161 7.64425,11.090853 -0.10862,3.143396 -3.22903,5.744172 -6.10713,5.72937 -3.69256,-0.01899 -6.77133,-3.586461 -9.51614,-7.366333 v 21.406436 c 9.66411,5.563088 17.92889,3.756073 23.58548,-2.318722 4.38658,-4.710884 7.05365,-11.044912 7.0676,-19.245114 0.0196,-11.522982 -4.68806,-16.08665 -10.99537,-22.114737 -4.41394,-4.218535 -6.00472,-8.277224 -2.89155,-11.716212 3.16324,-3.494296 9.61872,0.934303 12.42118,5.593342 z"
       id="path305"
       sodipodi:nodetypes="csssssccsssscc"
       inkscape:label="S" />
    <path
       style="fill:#346734;fill-opacity:1;stroke:#346734;stroke-opacity:1"
       d="M 247.43321,4.7101202 V 22.823039 h 9.3181 V 80.4999 h 15.44103 V 22.823039 h 9.17638 V 4.7101202 Z"
       id="path11858"
       inkscape:label="T" />
    <path
       style="fill:#346734;fill-opacity:1;stroke:#346734;stroke-opacity:1"
       d="M 316.53377,4.7101202 H 286.52762 V 80.4999 h 30.00615 V 63.652668 H 302.46561 V 51.186567 h 12.59902 V 33.746617 H 302.46561 V 22.791559 h 14.06816 z"
       id="path8809"
       inkscape:label="E" />
    <path
       id="path23511-8-7"
       style="fill:#346734;fill-opacity:1;stroke:#346734;stroke-opacity:1"
       d="M 322.62615,4.7101202 V 80.49918 h 15.64453 V 46.15543 l 9.96289,34.34375 h 16.88868 L 352.89764,49.243321 c 7.35202,-4.78198 9.42379,-11.696588 9.41796,-19.283203 -0.005,-6.323824 -1.38963,-13.180882 -4.80859,-17.451172 C 353.54789,7.5639902 346.4061,4.7101202 338.1867,4.7101202 Z m 15.64453,16.1914038 c 6.23318,-0.02818 8.38552,4.437786 8.49219,9.539062 0.13002,6.218325 -2.76659,9.818528 -8.52344,9.884766 z"
       inkscape:label="R1" />
    <path
       style="fill:#346734;fill-opacity:1;stroke:#346734;stroke-opacity:1"
       d="m 364.16126,41.002476 h 20.96571 v 15.626351 h -20.96571 z"
       id="path18950"
       inkscape:label="McMasturbate-Carr" />
    <path
       style="fill:#346734;fill-opacity:1;stroke:#346734;stroke-opacity:1"
       d="m 422.22798,59.830541 -0.58415,18.869592 c -3.18986,2.854139 -6.16294,3.238136 -11.01802,3.273925 -10.18886,0.07511 -23.20337,-12.46589 -23.13784,-37.303863 0.0754,-28.591376 12.60408,-40.1487202 26.88397,-40.2562758 3.41444,-0.025717 5.18718,0.7596025 7.55521,1.9450515 V 26.821005 c -1.52704,-2.590658 -3.40035,-4.093841 -7.46077,-4.092407 -6.14568,0.0022 -10.88493,5.727544 -10.95506,20.121155 -0.0717,14.719587 4.28217,20.947451 10.45138,20.865874 3.13949,-0.04151 5.7597,-1.62583 8.26528,-3.885086 z"
       id="path481"
       sodipodi:nodetypes="ccsssccsssc"
       inkscape:label="C" />
    <path
       id="path2786-1"
       style="fill:#346734;fill-opacity:1;stroke:#346734;stroke-opacity:1"
       d="M 439.93022,4.7108351 425.57865,80.4999 h 16.58008 l 1.10157,-9.91602 h 11.56445 l 1.10156,9.91602 h 16.06445 L 458.94389,4.7108351 Z m 9.11132,13.8320319 4.10547,36.943359 h -8.21093 z"
       inkscape:label="A2" />
    <path
       id="path23511"
       style="fill:#346734;fill-opacity:1;stroke:#346734;stroke-opacity:1"
       d="M 476.11328,4.7109375 V 80.5 h 15.64453 V 46.15625 L 501.7207,80.5 h 16.88868 L 506.38477,49.244141 c 7.35202,-4.78198 9.42379,-11.696588 9.41796,-19.283203 -0.005,-6.323824 -1.38963,-13.180882 -4.80859,-17.451172 -3.95912,-4.9449613 -11.10091,-7.7988285 -19.32031,-7.7988285 z m 15.64453,16.1914065 c 6.23318,-0.02818 8.38552,4.437786 8.49219,9.539062 0.13002,6.218325 -2.76659,9.818528 -8.52344,9.884766 z"
       inkscape:label="R2" />
    <path
       id="path23511-8"
       style="fill:#346734;fill-opacity:1;stroke:#346734;stroke-opacity:1"
       d="M 522.11598,4.7108372 V 80.4999 h 15.64453 V 46.15615 l 9.96289,34.34375 h 16.88868 L 552.38747,49.244041 c 7.35202,-4.78198 9.42379,-11.696588 9.41796,-19.283203 -0.005,-6.323824 -1.38963,-13.180882 -4.80859,-17.451172 -3.95912,-4.9449608 -11.10091,-7.7988288 -19.32031,-7.7988288 z m 15.64453,16.1914068 c 6.23318,-0.02818 8.38552,4.437786 8.49219,9.539062 0.13002,6.218325 -2.76659,9.818528 -8.52344,9.884766 z"
       inkscape:label="R3" />
    <path
       id="path4901"
       style="fill:none;stroke:#346734;stroke-width:1.5;stroke-opacity:1;stroke-dasharray:none"
       d="m 588.5646,73.156013 a 7.1292925,7.1292925 0 0 1 -7.1293,7.129293 7.1292925,7.1292925 0 0 1 -7.12929,-7.129293 7.1292925,7.1292925 0 0 1 7.12929,-7.129292 7.1292925,7.1292925 0 0 1 7.1293,7.129292 z"
       inkscape:label="Circle" />
    <path
       style="fill:none;fill-opacity:1;stroke:#346734;stroke-width:1.5;stroke-dasharray:none;stroke-opacity:1"
       d="m 578.77598,76.799986 v -7.28276 h 3.76239 c 3.04018,0 2.67671,4.006756 0,4.006756 h -3.76239"
       id="path11912"
       sodipodi:nodetypes="ccssc"
       inkscape:label="petarded" />
    <path
       style="fill:none;fill-opacity:1;stroke:#346734;stroke-width:1.5;stroke-dasharray:none;stroke-opacity:1;stroke-linecap:butt"
       d="m 584.02928,76.799986 -1.98777,-3.276004"
       id="path11976"
       inkscape:label="r word" />
  </g>
</svg>
