<?xml version="1.0" encoding="UTF-8" standalone="no"?>
<!-- Created with Inkscape (http://www.inkscape.org/) -->

<svg
   xmlns:dc="http://purl.org/dc/elements/1.1/"
   xmlns:cc="http://creativecommons.org/ns#"
   xmlns:rdf="http://www.w3.org/1999/02/22-rdf-syntax-ns#"
   xmlns:svg="http://www.w3.org/2000/svg"
   xmlns="http://www.w3.org/2000/svg"
   xmlns:sodipodi="http://sodipodi.sourceforge.net/DTD/sodipodi-0.dtd"
   xmlns:inkscape="http://www.inkscape.org/namespaces/inkscape"
   width="117.13999"
   height="96.802559"
   viewBox="0 0 30.993291 25.612344"
   version="1.1"
   id="svg1037"
   inkscape:version="0.92.0 r15299"
   sodipodi:docname="shoprite.svg">
  <defs
     id="defs1031">
    <style
       id="style1039">.a{fill:#fff;}.b{fill:#f5b827;}.c{fill:#110a00;}.d{fill:#ed1b2e;}</style>
  </defs>
  <sodipodi:namedview
     id="base"
     pagecolor="#ffffff"
     bordercolor="#666666"
     borderopacity="1.0"
     inkscape:pageopacity="0.0"
     inkscape:pageshadow="2"
     inkscape:zoom="5.5635262"
     inkscape:cx="58.069984"
     inkscape:cy="47.901282"
     inkscape:document-units="mm"
     inkscape:current-layer="layer1"
     showgrid="false"
     fit-margin-top="0"
     fit-margin-left="0"
     fit-margin-right="0"
     fit-margin-bottom="0"
     units="px"
     inkscape:window-width="1280"
     inkscape:window-height="744"
     inkscape:window-x="-4"
     inkscape:window-y="-4"
     inkscape:window-maximized="1" />
  <metadata
     id="metadata1034">
    <rdf:RDF>
      <cc:Work
         rdf:about="">
        <dc:format>image/svg+xml</dc:format>
        <dc:type
           rdf:resource="http://purl.org/dc/dcmitype/StillImage" />
        <dc:title></dc:title>
      </cc:Work>
    </rdf:RDF>
  </metadata>
  <g
     inkscape:label="Layer 1"
     inkscape:groupmode="layer"
     id="layer1"
     transform="translate(106.07864,-274.99011)">
    <g
       id="g1142"
       transform="translate(0.13229274,-0.1322892)">
      <path
         id="path1045"
         d="m -98.037957,300.59913 a 1.4419791,1.4419791 0 0 1 -1.362604,-0.74613 h -6.678079 v -10.71562 h 7.672912 a 9.7895832,9.7895832 0 0 1 -0.79375,-7.11994 c 1.076855,-3.98462 4.566709,-6.76275 8.474604,-6.76275 a 8.3819999,8.3819999 0 0 1 2.418292,0.35983 8.9958332,8.9958332 0 0 1 5.291667,4.46617 9.8345624,9.8345624 0 0 1 0.756708,7.05115 10.00125,10.00125 0 0 1 -0.79375,2.00554 h 7.702021 v 10.74208 h -19.39925 l -0.420687,0.0926 -0.862542,0.20902 -1.211792,0.30691 h -0.02646 a 2.8866041,2.8866041 0 0 1 -0.767292,0.11113 z"
         class="a"
         inkscape:connector-curvature="0"
         style="fill:#ffffff;stroke-width:0.26458332" />
      <path
         id="path1047"
         d="m -84.898749,289.59775 a 8.0671457,8.0671457 0 0 0 1.42875,-2.8575 8.7788749,8.7788749 0 0 0 0.291042,-2.19604 8.4666666,8.4666666 0 0 0 -0.926042,-3.84704 7.6358749,7.6358749 0 0 0 -4.471458,-3.75708 c -3.96875,-1.21709 -8.09625,1.21708 -9.233958,5.42395 a 8.7788749,8.7788749 0 0 0 -0.291042,2.19605 8.3290832,8.3290832 0 0 0 1.719792,5.05354 h 11.482916"
         class="b"
         inkscape:connector-curvature="0"
         style="fill:#f5b827;stroke-width:0.26458332" />
      <path
         id="path1049"
         d="m -83.575832,282.00421 c 0,-0.0265 0,-0.0265 -0.02646,-0.0529 l -3.571875,-0.0264 c 0,-0.10584 -0.02646,-0.23813 -0.02646,-0.34396 l 3.042709,-0.89959 c -0.02646,-0.0265 -0.02646,-0.0529 -0.05292,-0.0794 l -3.069167,0.60854 a 2.6008541,2.6008541 0 0 0 -0.132291,-0.42333 l 2.434166,-1.34938 c -0.02646,-0.0265 -0.02646,-0.0529 -0.05292,-0.0529 l -2.487084,1.05833 a 1.4261041,1.4261041 0 0 0 -0.185208,-0.34396 l 1.852083,-1.61396 c -0.02646,-0.0265 -0.05292,-0.0529 -0.07937,-0.0529 l -1.984375,1.37583 a 1.8229791,1.8229791 0 0 0 -0.291041,-0.34396 l 1.296458,-1.74625 c -0.02646,-0.0265 -0.05292,-0.0265 -0.07937,-0.0529 l -1.455208,1.56105 a 4.5243749,4.5243749 0 0 0 -0.370417,-0.29105 l 0.830792,-1.7727 c -0.02646,-0.0265 -0.07937,-0.0265 -0.105834,-0.0529 l -1.005416,1.64042 c -0.132292,-0.0529 -0.238125,-0.10584 -0.370417,-0.15875 l 0.423333,-1.77271 c -0.05292,0 -0.07937,-0.0265 -0.132291,-0.0265 l -0.635,1.69333 a 1.539875,1.539875 0 0 0 -0.502709,-0.0794 l 0.02646,-1.77271 h -0.132292 l -0.238125,1.74625 c -0.132292,0 -0.291042,0.0265 -0.423333,0.0265 l -0.343959,-1.74625 h -0.132291 l 0.105833,1.79916 a 1.68275,1.68275 0 0 0 -0.47625,0.15875 l -0.714375,-1.71979 c -0.05292,0 -0.07937,0.0265 -0.132292,0.0265 l 0.529167,1.85208 a 2.4156458,2.4156458 0 0 0 -0.343958,0.21167 l -1.164167,-1.66687 c -0.02646,0.0264 -0.07937,0.0264 -0.105833,0.0529 l 0.978958,1.85209 a 1.5160625,1.5160625 0 0 0 -0.291041,0.29104 l -1.640417,-1.56104 a 0.13758333,0.13758333 0 0 1 -0.105833,0.0529 l 1.481666,1.79917 c -0.07937,0.10583 -0.132291,0.21167 -0.211666,0.3175 l -2.196042,-1.34938 -0.07937,0.0688 2.090208,1.61395 c -0.05292,0.10584 -0.07937,0.21167 -0.132291,0.3175 l -2.725209,-1.00541 c -0.02646,0.0265 -0.02646,0.0529 -0.05292,0.0794 l 2.672291,1.30704 c -0.02646,0.10584 -0.05292,0.23813 -0.07937,0.37042 l -3.307291,-0.42333 c 0,0.0265 -0.02646,0.0529 -0.02646,0.0794 l 3.413125,0.71438 v 0.29104 l -3.757083,0.29104 v 0.0529 l 3.81,0.0529 c 0.02646,0.10584 0.02646,0.21167 0.05292,0.3175 l -4.138084,1.23296 v 0 l 4.206875,-0.87312 0.07937,0.23812 -3.862916,2.11667 4.048125,-1.74625 c 0.05292,0.0794 0.105833,0.18521 0.15875,0.26458 l -3.386667,2.93688 3.624792,-2.59292 a 1.3229166,1.3229166 0 0 0 0.185208,0.21167 l -2.672292,3.4925 2.973917,-3.21734 c 0.07937,0.0529 0.15875,0.1323 0.238125,0.18521 l -1.931458,3.99521 2.248958,-3.81 c 0.07937,0.0529 0.185208,0.0794 0.264583,0.13229 l -0.978958,4.1275 v 0 l 1.349375,-3.99521 c 0.07937,0.0265 0.185208,0.0529 0.291041,0.0794 l -0.132291,3.91583 h 0.02646 l 0.529167,-3.86291 h 0.343958 l 0.714375,3.86291 h 0.02646 l -0.343958,-3.91583 c 0.07937,-0.0265 0.185208,-0.0265 0.264583,-0.0529 l 1.5875,3.91584 -1.164166,-4.04813 0.3175,-0.15875 2.354791,3.4925 -2.037291,-3.70417 0.291041,-0.21166 2.963334,2.8575 -2.682875,-3.10621 a 1.0371667,1.0371667 0 0 0 0.211666,-0.26458 l 3.545417,2.19604 -3.33375,-2.51354 a 2.1854583,2.1854583 0 0 0 0.185208,-0.34396 l 3.862917,1.34937 -3.704167,-1.69333 c 0.02646,-0.10583 0.07937,-0.21167 0.105834,-0.3175 l 4.074583,0.52917 v 0 l -3.931708,-0.889 c 0.02646,-0.1323 0.02646,-0.26459 0.05292,-0.39688 l 3.571875,-0.3175"
         class="a"
         inkscape:connector-curvature="0"
         style="fill:#ffffff;stroke-width:0.26458332" />
      <path
         id="path1051"
         d="m -86.883124,285.78775 -5.334,1.21709 a 0.40216666,0.40216666 0 0 1 -0.529166,-0.26459 0.45243749,0.45243749 0 0 1 0.264583,-0.55562 l 5.476875,-2.06375 0.07937,-3.33375 -3.598333,0.92604 a 0.73289582,0.73289582 0 0 0 0.3175,-0.76729 0.70643749,0.70643749 0 1 0 -1.375834,0.3175 0.67468749,0.67468749 0 0 0 0.555625,0.58208 l -1.756833,0.43921 0.449792,-0.52917 -1.455208,-1.64041 -0.608542,0.71437 1.42875,1.50813 -1.36525,0.35454 -0.343958,-0.635 -1.296459,0.29104 0.3175,0.58208 0.502709,-0.10583 1.799166,3.30729 a 1.0583333,1.0583333 0 0 0 -0.105833,1.11125 c 0.15875,0.37042 0.582083,0.68792 1.322916,0.50271 l 5.386917,-1.22767 -0.132292,-0.74083"
         class="b"
         inkscape:connector-curvature="0"
         style="fill:#f5b827;stroke-width:0.26458332" />
      <path
         id="path1053"
         d="m -88.549999,281.15754 a 0.73024999,0.73024999 0 0 0 0.529167,-0.89958 0.72231249,0.72231249 0 0 0 -0.846667,-0.58208 0.73024999,0.73024999 0 0 0 -0.529166,0.89958 0.74877082,0.74877082 0 0 0 0.846666,0.58208"
         class="b"
         inkscape:connector-curvature="0"
         style="fill:#f5b827;stroke-width:0.26458332" />
      <polyline
         transform="matrix(0.26458333,0,0,0.26458333,-106.24004,275.14092)"
         id="polyline1055"
         points="58.46 11.74 59.36 18.24 61.36 18.64 63.76 12.54 58.46 11.74"
         class="b"
         style="fill:#f5b827" />
      <path
         id="path1057"
         d="m -92.068957,280.39025 a 0.79374999,0.79374999 0 0 0 0.582083,-0.89958 0.70643749,0.70643749 0 1 0 -1.375833,0.3175 0.67204166,0.67204166 0 0 0 0.79375,0.58208"
         class="b"
         inkscape:connector-curvature="0"
         style="fill:#f5b827;stroke-width:0.26458332" />
      <path
         id="path1059"
         d="m -90.666665,281.60734 a 0.79374999,0.79374999 0 0 0 0.582083,-0.89959 0.70643749,0.70643749 0 1 0 -1.375833,0.3175 0.68527082,0.68527082 0 0 0 0.79375,0.58209"
         class="c"
         inkscape:connector-curvature="0"
         style="fill:#110a00;stroke-width:0.26458332" />
      <path
         id="path1061"
         d="m -91.936665,280.168 a 0.79374999,0.79374999 0 0 0 0.582083,-0.89958 0.70643749,0.70643749 0 1 0 -1.375833,0.3175 0.67204166,0.67204166 0 0 0 0.79375,0.58208"
         class="c"
         inkscape:connector-curvature="0"
         style="fill:#110a00;stroke-width:0.26458332" />
      <path
         id="path1063"
         d="m -88.417707,280.91942 a 0.75141666,0.75141666 0 0 0 0.529167,-0.89958 0.72231249,0.72231249 0 0 0 -0.846667,-0.58209 0.76729166,0.76729166 0 0 0 -0.555625,0.89959 0.74612499,0.74612499 0 0 0 0.873125,0.58208"
         class="c"
         inkscape:connector-curvature="0"
         style="fill:#110a00;stroke-width:0.26458332" />
      <polyline
         transform="matrix(0.26458333,0,0,0.26458333,-106.24004,275.14092)"
         id="polyline1065"
         points="58.96 10.74 59.86 17.24 61.96 17.64 64.36 11.54 58.96 10.74"
         class="c"
         style="fill:#110a00" />
      <polyline
         transform="matrix(0.26458333,0,0,0.26458333,-106.24004,275.14092)"
         id="polyline1067"
         points="47.56 17.94 53.06 24.14 50.96 26.64 45.26 20.64 47.56 17.94"
         class="c"
         style="fill:#110a00" />
      <path
         id="path1069"
         d="m -87.25354,286.39629 0.661458,-0.15875 -0.132292,-0.55562 -5.476875,1.29646 a 0.56620833,0.56620833 0 0 1 -0.608541,-0.37042 0.45243749,0.45243749 0 0 1 0.264583,-0.55562 l 5.688542,-2.18017 v -2.794 l -7.117292,1.71979 -0.555625,-1.00542 -1.296458,0.29105 0.3175,0.58208 0.502708,-0.10583 1.799167,3.30729 a 1.0583333,1.0583333 0 0 0 -0.105833,1.11125 1.0107083,1.0107083 0 0 0 1.084791,0.55562 0.77258332,0.77258332 0 0 0 -0.185208,0.68792 0.68527082,0.68527082 0 0 0 0.79375,0.58208 0.79374999,0.79374999 0 0 0 0.582083,-0.89958 0.69585416,0.69585416 0 0 0 -0.47625,-0.52917 l 3.571875,-0.82021 a 0.79374999,0.79374999 0 0 0 -0.238125,0.71438 0.72231249,0.72231249 0 0 0 0.846667,0.58208 0.75141666,0.75141666 0 0 0 0.529166,-0.89958 0.65881249,0.65881249 0 0 0 -0.449791,-0.55563"
         class="c"
         inkscape:connector-curvature="0"
         style="fill:#110a00;stroke-width:0.26458332" />
      <path
         id="path1071"
         d="m -83.893332,289.59775 a 9.7895832,9.7895832 0 0 0 1.217083,-2.67229 9.4562082,9.4562082 0 0 0 0.3175,-2.43417 9.347729,9.347729 0 0 0 -1.031875,-4.23333 8.4666666,8.4666666 0 0 0 -4.974166,-4.20687 c -4.392084,-1.32292 -8.969375,1.37583 -10.239375,6.0325 a 9.1731041,9.1731041 0 0 0 1.217083,7.51416 h -8.059208 v 9.65729 h 6.535208 a 0.62177083,0.62177083 0 0 0 0.05292,0.21167 c 0.3175,0.74083 1.27,0.52917 1.613958,0.42333 h 0.02646 l 1.164166,-0.29104 0.873125,-0.21166 0.47625,-0.10584 h 18.917708 v -9.68375 z m -12.488333,0 a 8.3290832,8.3290832 0 0 1 -1.719792,-5.05354 8.9429166,8.9429166 0 0 1 0.291042,-2.19604 c 1.137708,-4.20688 5.291666,-6.64104 9.233958,-5.42396 a 7.7734582,7.7734582 0 0 1 4.471458,3.77296 8.1306457,8.1306457 0 0 1 0.926042,3.83646 8.7788749,8.7788749 0 0 1 -0.291042,2.19604 8.0671457,8.0671457 0 0 1 -1.42875,2.8575 z"
         class="d"
         inkscape:connector-curvature="0"
         style="fill:#ed1b2e;stroke-width:0.26458332" />
      <path
         id="path1073"
         d="m -92.915624,294.54546 a 2.2330833,2.2330833 0 0 1 -0.158749,0.635 c -0.105834,0.21167 -0.343959,0.66146 -0.608542,0.71438 -0.264583,0.0529 -0.291042,-0.0794 -0.264583,-0.34396 a 1.9579166,1.9579166 0 0 1 0.211666,-0.76729 2.286,2.286 0 0 1 0.264584,-0.42334 c 0.02646,-0.0265 0.105833,-0.15875 0.15875,-0.21166 a 0.59531249,0.59531249 0 0 0 0.396874,0.39687 z m -3.518958,-1.37583 c -0.105833,0.0794 -0.211666,0.18521 -0.3175,0.26458 0.343959,-0.71437 0.740834,-1.42875 1.349375,-1.85208 0.07938,-0.0529 0.185209,-0.0794 0.185209,-0.0529 a 0.79374999,0.79374999 0 0 1 -0.07937,0.23813 3.6327291,3.6327291 0 0 1 -0.343959,0.52916 3.5480625,3.5480625 0 0 1 -0.79375,0.87313 z m 3.518958,0.82021 c -0.05292,-0.10584 -0.07938,-0.10584 -0.07938,0.0265 a 0.24341666,0.24341666 0 0 0 0.105834,0.15875 v -0.0265 a 0.39422916,0.39422916 0 0 0 -0.02646,-0.15875 z m 10.054167,-1.37584 c 0,0.0265 0.05292,0.0265 0.05292,0 0.132291,-0.13229 0.238125,-0.29104 0.370416,-0.42333 a 1.3229166,1.3229166 0 0 1 0.211667,-0.18521 c 0.05292,-0.0265 0.07937,-0.0529 0.105833,-0.0529 a 0.09789583,0.09789583 0 0 0 0.07938,-0.0265 0.28575,0.28575 0 0 0 0.132292,-0.4498 0.32279166,0.32279166 0 0 0 -0.502708,0 2.174875,2.174875 0 0 0 -0.238125,0.29105 1.1509375,1.1509375 0 0 0 -0.105834,0.1852 0.96043749,0.96043749 0 0 0 -0.105833,0.65088 z m -2.883958,-1.53458 a 4.7889583,4.7889583 0 0 0 -1.852084,0.3175 c -0.291041,0.13229 -1.005416,0.44979 -0.926041,0.9525 a 0.20372916,0.20372916 0 0 0 0.396875,0 v 0 a 1.6880416,1.6880416 0 0 1 0.370416,-0.21167 2.6167291,2.6167291 0 0 1 0.635,-0.23812 c 0.07937,-0.0265 0.15875,-0.0265 0.211667,-0.0529 -0.05292,0.0794 -0.07937,0.13229 -0.132292,0.21167 a 9.9694999,9.9694999 0 0 0 -0.740833,1.27 c -0.05292,0.13229 -0.132292,0.26458 -0.185208,0.42333 a 1.7197916,1.7197916 0 0 0 -0.820209,0.21167 0.3095625,0.3095625 0 0 0 0.01058,0.49212 0.72231249,0.72231249 0 0 0 0.47625,0.13229 7.9374999,7.9374999 0 0 0 -0.3175,1.61396 c -0.02646,0.34396 0.423333,0.3175 0.502708,0.13229 a 13.946187,13.946187 0 0 0 0.661458,-1.85208 h 0.238125 a 5.2466874,5.2466874 0 0 1 1.190625,0.39688 5.1858333,5.1858333 0 0 1 1.084792,0.66145 7.1437499,7.1437499 0 0 0 1.058333,0.7673 0.29633333,0.29633333 0 0 0 0.370417,-0.4498 c -0.291042,-0.42333 -0.846667,-0.71437 -1.217083,-0.97895 a 9.8319165,9.8319165 0 0 0 -1.031875,-0.55563 6.0086874,6.0086874 0 0 0 1.508125,-0.52917 c 0.396875,-0.21166 1.084791,-0.68791 1.058333,-1.29645 -0.0635,-1.25942 -1.878542,-1.39171 -2.550583,-1.41817 z m -11.90625,2.93687 a 2.0267083,2.0267083 0 0 1 -0.449792,0.18521 c -0.105833,0.0265 -0.15875,0.18521 0,0.21167 a 1.1853333,1.1853333 0 0 0 0.291042,0.0265 1.8229791,1.8229791 0 0 1 -0.07937,0.21166 c -0.07937,0.26459 -0.185208,0.52917 -0.238125,0.79375 a 2.4024166,2.4024166 0 0 0 -0.105833,0.87313 0.36777083,0.36777083 0 0 0 0.291041,0.29104 c 0.449792,0.10583 0.635,-0.44979 0.846667,-0.71437 0.396875,-0.47625 1.11125,-1.00542 1.42875,-1.05834 v 0 a 2.8760208,2.8760208 0 0 0 -0.105833,0.68792 c -0.02646,0.60854 0.291041,1.19062 0.873125,1.03187 0.343958,-0.10583 0.264583,-0.34395 0,-0.37041 -0.449792,-0.0529 -0.02646,-1.32292 0,-1.61396 a 0.48418749,0.48418749 0 0 0 -0.291042,-0.47625 0.80697916,0.80697916 0 0 0 -0.502708,0.0265 4.8074791,4.8074791 0 0 0 -0.846667,0.39687 3.4633958,3.4633958 0 0 0 -0.635,0.44979 2.38125,2.38125 0 0 0 -0.264583,0.23813 0.62177083,0.62177083 0 0 0 0.05292,-0.21167 c 0.07938,-0.26458 0.15875,-0.55562 0.264584,-0.82021 a 5.6806041,5.6806041 0 0 0 1.217083,-0.87312 3.96875,3.96875 0 0 0 0.9525,-1.13771 c 0.15875,-0.26458 0.423333,-1.03187 -0.105833,-1.21708 -0.423334,-0.15875 -0.873125,0.3175 -1.11125,0.55562 a 6.7468749,6.7468749 0 0 0 -1.005417,1.40229 c -0.15875,0.34396 -0.3175,0.74084 -0.47625,1.11125 z m -0.899583,1.49755 c -0.105834,-0.74084 -0.978959,-0.9525 -1.481672,-1.00542 -0.39687,-0.0265 -0.8202,-0.0265 -1.21708,-0.0265 -0.10583,0 -1.19062,0.0265 -1.11125,-0.29104 a 2.2754166,2.2754166 0 0 1 0.76729,-0.9525 5.0270833,5.0270833 0 0 1 1.13771,-0.68792 3.4528125,3.4528125 0 0 1 1.640418,-0.34396 c 0.211667,0 0.555625,0 0.635,0.3175 a 1.0133542,1.0133542 0 0 1 -0.211666,0.79375 v 0 c -0.07937,0.10584 0.02646,0.34396 0.211666,0.26459 0.449792,-0.21167 0.926042,-1.13771 0.343959,-1.69334 -0.582084,-0.55562 -1.640417,-0.39687 -2.196047,-0.26458 a 5.8446458,5.8446458 0 0 0 -2.35479,1.19063 c -0.47625,0.39687 -1.37583,1.37583 -0.47625,2.16958 a 1.8785416,1.8785416 0 0 0 1.19063,0.34396 h 1.29646 c 0.26458,0 0.661455,-0.0265 0.89958,0.26458 0,0 0.02646,0.0794 0.02646,0.0529 0.02646,0.13229 0.02646,0.0529 0,0.18521 -0.05292,0.26458 -0.396875,0.60854 -0.635,0.8202 a 5.1143958,5.1143958 0 0 1 -1.29646,0.82021 6.5828333,6.5828333 0 0 1 -0.76729,0.29104 2.270125,2.270125 0 0 1 -0.82021,0.0794 0.83343749,0.83343749 0 0 1 -0.60854,-0.29104 c -0.0265,-0.0529 -0.0529,-0.0794 -0.10584,-0.0794 -0.34395,0 -0.21166,0.50271 0.0794,0.635 0.60854,0.47625 1.5875,0.18521 2.06375,0.0529 a 5.7943749,5.7943749 0 0 0 2.619377,-1.56104 1.5478125,1.5478125 0 0 0 0.370417,-1.08479 z m 16.404166,1.82562 c -0.423333,-0.37042 -1.031875,-0.39687 -1.481667,-0.50271 a 15.345833,15.345833 0 0 0 -2.169583,-0.18521 27.810354,27.810354 0 0 0 -4.471458,0.37042 c -0.582084,0.10583 -1.190625,0.21167 -1.772709,0.34396 0.132292,-0.55563 0.264584,-1.13771 0.396875,-1.61396 0.07937,-0.26458 0.185209,-0.52917 0.264584,-0.79375 a 1.698625,1.698625 0 0 1 0.264583,-0.34396 1.8071041,1.8071041 0 0 1 0.714375,-0.52916 c 0.529167,-0.18521 0.449792,0.5027 0.343958,0.76729 a 2.1510625,2.1510625 0 0 1 -1.375833,1.24354 c -0.238125,0.0794 -0.211667,0.42333 0.185208,0.39687 a 2.1404791,2.1404791 0 0 0 1.878542,-1.40229 1.4234583,1.4234583 0 0 0 -0.02646,-1.13771 0.85460416,0.85460416 0 0 0 -1.031875,-0.44979 2.1642916,2.1642916 0 0 0 -0.740834,0.37042 v 0 a 0.24341666,0.24341666 0 0 0 -0.264583,-0.0529 6.5404999,6.5404999 0 0 1 -0.978958,0.37042 0.09789583,0.09789583 0 0 0 -0.02646,-0.0794 c -0.105833,-0.42333 -0.529166,-0.71437 -0.793749,-0.47625 a 0.57943749,0.57943749 0 0 0 -0.07937,0.1323 1.2170833,1.2170833 0 0 0 -0.555625,0.21166 2.4077083,2.4077083 0 0 0 -0.79375,1.53459 c -0.05292,0.55562 0.264583,1.03187 0.79375,1.03187 0.661458,0 1.058333,-0.44979 1.322916,-1.03187 a 2.0716875,2.0716875 0 0 0 0.185208,-1.00542 3.7465,3.7465 0 0 0 0.582084,-0.18521 c -0.02646,0.0529 -0.05292,0.13229 -0.07938,0.18521 a 6.2388749,6.2388749 0 0 0 -0.3175,0.74083 14.986,14.986 0 0 0 -0.740834,2.32834 c -0.529166,0.13229 -1.058333,0.23812 -1.561041,0.37041 -0.687917,0.15875 -1.375833,0.34396 -2.06375,0.52917 a 7.3871666,7.3871666 0 0 1 -1.031875,0.26458 1.0980208,1.0980208 0 0 1 -0.343958,0.0265 c -0.05292,0 -0.105834,-0.0265 -0.105834,-0.0529 0,-0.0264 0,-0.10583 -0.07937,-0.10583 a 0.365125,0.365125 0 0 0 -0.343958,0.18521 0.62441666,0.62441666 0 0 0 -0.02646,0.3175 c 0.238125,0.55562 1.031875,0.34396 1.349375,0.26458 0.687916,-0.15875 1.349375,-0.34396 2.037291,-0.50271 l 1.931459,-0.47625 v 0.0265 c -0.132292,0.42334 0.370416,0.58209 0.634999,0.42334 a 0.79374999,0.79374999 0 0 0 0.238125,-0.34396 2.3627291,2.3627291 0 0 0 0.132292,-0.34396 c 0.396875,-0.10583 0.79375,-0.21167 1.190625,-0.29104 a 26.117021,26.117021 0 0 1 4.312708,-0.66146 12.771437,12.771437 0 0 1 2.248959,0.0265 c 0.370416,0.0529 0.714375,0.10583 1.084791,0.18521 a 1.2911667,1.2911667 0 0 1 0.714375,0.29104 c 0.238125,0.32808 0.740834,-0.0953 0.449792,-0.35984 z m 2.06375,-1.53458 c -1.005417,0.0265 -0.635,-1.61396 -0.529167,-2.14313 0.07937,-0.37041 0.211667,-0.74083 0.3175,-1.08479 a 8.2470624,8.2470624 0 0 1 1.164167,-0.23812 1.6271875,1.6271875 0 0 1 0.714375,0 0.59266666,0.59266666 0 0 0 0.47625,-0.0265 0.30427083,0.30427083 0 0 0 0.105833,-0.37042 0.76199999,0.76199999 0 0 0 -0.687916,-0.29104 6.1251041,6.1251041 0 0 0 -1.217084,0.13229 l -0.291041,0.0794 c 0.02646,-0.0265 0.02646,-0.0529 0.05292,-0.0794 0.105834,-0.23812 0.291042,-0.50271 0.238125,-0.79375 -0.02646,-0.21167 -0.291041,-0.18521 -0.370416,-0.0794 a 4.8233541,4.8233541 0 0 0 -0.687917,1.19062 h -0.04233 c -0.105834,0.0265 -1.190625,0.42333 -1.217084,0.29104 a 0.13758333,0.13758333 0 0 0 -0.211666,-0.0794 c -0.238125,0.18521 -0.05292,0.52916 0.238125,0.635 a 1.3414375,1.3414375 0 0 0 0.899583,-0.0794 v 0.0265 a 8.5407499,8.5407499 0 0 1 -1.084792,1.29646 c -0.15875,0.15875 -0.3175,0.29104 -0.502708,0.44979 a 2.3124583,2.3124583 0 0 1 -0.264583,0.21167 0.02645833,0.02645833 0 0 0 -0.02646,0.0265 c -0.132291,-0.34396 0.05292,-0.92605 0.211667,-1.21709 a 748332.28,748332.28 0 0 1 0.05292,-0.0529 c 0.05292,-0.0794 0,-0.15875 -0.05292,-0.21167 a 0.206375,0.206375 0 0 0 -0.211667,-0.0529 c -0.502708,0.26459 -0.767291,1.00542 -0.687916,1.66688 a 0.73024999,0.73024999 0 0 0 0.687916,0.635 1.349375,1.349375 0 0 0 0.899584,-0.50271 4.4979166,4.4979166 0 0 0 0.582083,-0.635 2.0346458,2.0346458 0 0 0 0.105833,1.24354 c 0.291042,0.66146 1.084792,0.635 1.375834,0.50271 0.201083,-0.14817 0.201083,-0.47625 -0.03704,-0.43921 z m 0.582083,-0.74084 a 2.5479375,2.5479375 0 0 0 0.714375,-0.10583 2.032,2.032 0 0 0 1.11125,-0.74083 0.67204166,0.67204166 0 0 0 -0.211666,-0.9525 1.2594167,1.2594167 0 0 0 -1.11125,0 1.9896666,1.9896666 0 0 0 -0.9525,0.79375 c -0.211667,0.34396 -0.396875,1.00541 0,1.45521 0.661458,0.74083 1.905,0.44979 2.328333,-0.1323 0.132292,-0.1852 -0.132292,-0.34395 -0.291042,-0.23812 a 1.3440833,1.3440833 0 0 1 -1.402291,0.10583 0.26458333,0.26458333 0 0 1 -0.185209,-0.17462 z m -6.217708,-3.30729 c 0.238125,0 2.06375,0.26459 1.613958,0.82021 -0.529166,0.68792 -1.402291,0.92604 -2.248958,1.08479 -0.291042,0.0529 -0.555625,0.0794 -0.846667,0.13229 h -0.02646 c 0.15875,-0.39687 0.343958,-0.76729 0.529167,-1.1377 a 5.5827083,5.5827083 0 0 0 0.423333,-0.89959 1.9552708,1.9552708 0 0 1 0.555625,0.0106 z m 6.201833,2.94746 a 1.7409583,1.7409583 0 0 1 0.555625,-0.74083 0.97102082,0.97102082 0 0 1 0.529167,-0.23813 c 0.3175,-0.0265 0.238125,0.23813 0.105833,0.42334 a 1.5107708,1.5107708 0 0 1 -1.190625,0.55562 z"
         class="a"
         inkscape:connector-curvature="0"
         style="fill:#ffffff;stroke-width:0.26458332" />
      <path
         id="path1075"
         d="m -78.019582,296.71504 a 0.75935416,0.75935416 0 0 1 0.714375,-0.76729 0.72495832,0.72495832 0 0 1 0.714375,0.76729 0.74083332,0.74083332 0 0 1 -0.714375,0.7673 0.72495832,0.72495832 0 0 1 -0.714375,-0.7673 z m 0.714375,0.635 a 0.63764583,0.63764583 0 1 0 -0.582083,-0.635 0.60060416,0.60060416 0 0 0 0.582083,0.635 z m -0.15875,-0.1852 h -0.132292 v -0.87313 h 0.3175 c 0.185209,0 0.291042,0.0794 0.291042,0.23813 a 0.23283333,0.23283333 0 0 1 -0.211667,0.23812 l 0.238125,0.39688 h -0.132291 l -0.211667,-0.37042 h -0.132292 v 0.37042 z m 0.15875,-0.50271 c 0.105833,0 0.211667,0 0.211667,-0.13229 0,-0.1323 -0.105834,-0.1323 -0.185209,-0.1323 h -0.15875 v 0.26459 z"
         class="a"
         inkscape:connector-curvature="0"
         style="fill:#ffffff;stroke-width:0.26458332" />
    </g>
  </g>
</svg>
